<?xml version="1.0" encoding="UTF-8" standalone="no"?>
<!-- Created with Inkscape (http://www.inkscape.org/) -->

<svg
   xmlns:dc="http://purl.org/dc/elements/1.1/"
   xmlns:cc="http://creativecommons.org/ns#"
   xmlns:rdf="http://www.w3.org/1999/02/22-rdf-syntax-ns#"
   xmlns:svg="http://www.w3.org/2000/svg"
   xmlns="http://www.w3.org/2000/svg"
   xmlns:sodipodi="http://sodipodi.sourceforge.net/DTD/sodipodi-0.dtd"
   xmlns:inkscape="http://www.inkscape.org/namespaces/inkscape"
   width="4052.3601"
   height="1500.09"
   id="svg3578"
   version="1.1"
   inkscape:version="0.48.4 r9939"
   sodipodi:docname="New document 6">
  <defs
     id="defs3580" />
  <sodipodi:namedview
     id="base"
     pagecolor="#ffffff"
     bordercolor="#666666"
     borderopacity="1.0"
     inkscape:pageopacity="0.0"
     inkscape:pageshadow="2"
     inkscape:zoom="0.24748737"
     inkscape:cx="2240.0683"
     inkscape:cy="339.21913"
     inkscape:document-units="px"
     inkscape:current-layer="g3499"
     showgrid="false"
     width="2052.36px"
     inkscape:window-width="1920"
     inkscape:window-height="1056"
     inkscape:window-x="0"
     inkscape:window-y="24"
     inkscape:window-maximized="1" />
  <metadata
     id="metadata3583">
    <rdf:RDF>
      <cc:Work
         rdf:about="">
        <dc:format>image/svg+xml</dc:format>
        <dc:type
           rdf:resource="http://purl.org/dc/dcmitype/StillImage" />
        <dc:title></dc:title>
      </cc:Work>
    </rdf:RDF>
  </metadata>
  <g
     inkscape:label="Layer 1"
     inkscape:groupmode="layer"
     id="layer1"
     transform="translate(0,447.72785)">
    <g
       transform="matrix(2.2757555,0,0,3.1664477,-422.18122,-450.86622)"
       id="g3499">
      <path
         inkscape:connector-curvature="0"
         d="m 813.56843,168.22009 c -0.93894,0 -4.38175,-0.65462 -5.94667,-0.65462 l -11.58034,-4.255 c -10.32842,-3.9277 -21.59193,-4.5823 -31.29824,-4.5823 -2.19089,0 -13.76737,-1.30923 -19.71791,2.29116 -1.5649,1.30922 -2.81683,9.16462 -5.00771,14.40154 -5.00773,14.3975 -7.82071,31.0902 -10.32843,46.47369 l 0.31299,0.32731 c 0.31297,0.65461 0.93894,0.98192 1.25192,1.30922 9.38948,0.98192 26.28666,0.32731 28.79053,0.32731 18.15299,0 40.68386,-4.90962 53.82912,0.3273 -2.19089,5.23693 -10.95439,4.90558 -15.64914,8.1827 -2.19086,1.63251 -5.63367,3.27309 -9.38946,6.87348 -3.44281,2.61441 -5.94666,10.14249 -10.95439,12.76097 -7.82456,2.61845 -32.85929,10.14654 -46.00454,10.14654 -2.19089,0 -4.69475,-0.98192 -7.51158,-0.98192 -4.06879,0 -7.82458,28.47577 -7.82458,34.36733 -1.25192,10.80115 0,28.47176 -2.19088,42.54195 -0.31299,0.98596 -0.93894,0.98596 -1.87789,1.96384 0.93895,2.61847 0.93895,7.20078 0.62596,10.1506 -3.44281,1.30518 -4.69473,0.65057 -6.8856,4.255 -0.93896,0 -3.44282,-0.98194 -4.69474,-1.30924 -20.65684,-25.19868 -25.35158,-54.9837 -25.35158,-75.60408 0,-2.29117 2.50386,-29.45367 4.06877,-44.50985 0.31298,-2.94576 3.44281,-8.83732 4.69474,-13.09232 3.44281,-14.0702 12.20632,-34.6906 23.16068,-52.03791 23.7867,-36.98174 42.24878,-46.801 65.72248,-46.801 2.50385,0 11.58034,-0.3273 16.58421,2.61848 3.75577,2.61844 7.19859,6.87344 13.45825,12.11039 l 0.62594,2.94576 c 2.50387,2.61443 9.0765,6.21886 10.01546,10.14656 1.25193,1.63652 -1.25193,5.56422 -0.31299,8.17865 2.19086,3.9277 2.19086,5.56424 4.69474,11.12846 h -5.30912 z"
         id="path3501" />
      <path
         inkscape:connector-curvature="0"
         d="m 887.74529,250.6936 -1.25195,-0.97788 c -0.31297,-0.33135 -0.93894,-0.6546 -1.25192,-1.63652 0,-9.16867 -0.62596,-18.98388 -1.56492,-29.12638 -27.22561,15.38349 -40.37087,48.76484 -49.44736,69.7085 -3.44282,8.17867 -8.45052,17.99792 -10.9544,27.49389 -2.19086,10.14654 0.313,19.63441 0.62598,30.43559 -0.93894,0 -2.81684,2.29114 -5.32069,2.29114 -2.50388,0 -3.12983,-2.94576 -3.44281,-1.96384 -0.62598,0.98192 -0.62598,1.96384 0,3.6004 -3.44282,-0.9779 -7.1986,-0.32329 -8.13756,-2.61443 -0.93894,0.98192 -1.87788,0.98192 -3.12983,1.95981 -9.07649,-12.76099 -11.89333,-18.97983 -11.89333,-29.45367 0,-25.85328 12.51931,-92.29276 15.02316,-108.98547 0.93896,-2.29114 -0.62596,-4.90962 -0.62596,-7.20076 v -6.21886 c 2.50386,0 5.00771,-1.63654 7.1986,-1.63654 2.50385,0 5.94667,5.56019 8.45052,5.56019 2.19088,0 -0.31297,-0.98192 1.8779,-0.98192 2.50385,0 2.50385,2.29114 3.44281,3.6004 11.89333,2.61844 8.13754,13.74692 10.64141,22.58423 14.71017,-17.02001 22.53473,-25.20271 35.98912,-25.20271 2.81684,0 7.19859,0.65462 12.83227,2.29116 5.63369,1.30923 10.01545,2.94576 13.45825,4.90962 1.56491,0.98192 2.19088,2.94576 2.19088,5.89154 0,3.27308 -11.26738,23.56617 -14.71017,35.67251 z"
         id="path3503" />
      <path
         inkscape:connector-curvature="0"
         d="m 979.44915,261.82208 c -0.93895,8.1827 -2.81685,19.31118 -5.00772,29.45367 -1.56492,10.15059 -3.44282,22.25694 -3.44282,23.56617 0,2.28712 1.25194,14.40156 2.81684,21.27502 h -0.31296 c -0.31299,0 -0.62598,0.3273 -1.25194,0.98194 1.87789,2.28709 4.38175,4.255 7.82456,6.21884 -2.19087,0 -5.32069,2.61442 -7.51158,2.61442 -5.94667,0 -24.09579,-14.07021 -27.22562,-26.18058 -3.44281,-10.80118 -3.44281,-20.94772 -3.44281,-24.87138 0.31299,-4.255 0.93896,-7.85538 0.62598,-13.41962 -4.06877,4.255 -6.88561,11.12846 -11.58035,15.38346 -4.06878,5.24097 -8.45054,11.7831 -12.5193,21.93368 -0.93895,0.97787 -0.62596,5.56422 -1.87791,7.85135 -3.75577,6.87348 -6.57261,13.41558 -11.58034,17.34732 -2.19087,2.28712 -7.51158,4.255 -10.01543,4.255 H 890.253 c -1.56491,0 -3.44281,-3.60039 -5.63367,-4.90961 -11.26739,-8.50596 -11.26739,-16.69271 -11.26739,-23.23886 0,-7.52404 2.81685,-21.92965 5.32072,-26.18061 3.4428,-9.49192 9.07649,-21.60232 14.39719,-31.09021 8.13755,-15.05615 25.66456,-46.47369 45.3786,-67.09407 0.93894,-0.98194 3.12982,-0.32732 5.63367,-0.32732 8.76351,0 18.14912,3.60038 25.97369,6.21886 v 3.60038 c -3.7558,6.21885 -8.76351,8.51002 -7.82457,12.43771 4.69474,-0.98194 11.26739,0 17.52702,0.98192 -0.93894,4.90962 0.93895,15.37942 0.93895,17.67462 0.004,1.95578 -0.30912,18.64443 -1.24806,25.5179 z m -30.98141,-35.0179 c -0.93894,-1.30923 0,-1.96386 -0.93894,-1.96386 -7.51158,8.83731 -20.65685,28.14445 -23.15684,38.94562 -0.93894,2.2871 -3.12983,6.21884 -4.06877,9.81923 0.31299,-0.65461 0.62595,-0.98192 0.62595,-0.98192 l 0.31299,0.32731 c -4.69474,10.80115 -7.19859,16.03808 -12.83227,34.69464 25.35158,-35.34928 40.37087,-64.47562 48.19544,-85.75064 -2.81685,0.98192 -4.69861,2.61845 -8.13756,4.90962 z m 5.00773,-43.20465 c -18.46597,0 -26.29054,-18.97983 -26.29054,-31.0902 0,-14.39753 15.64913,-32.07619 29.42037,-32.07619 3.75578,0 8.7635,1.30922 14.08419,8.1827 2.50388,3.60038 6.25966,4.5823 8.45054,8.51 0.93894,2.29117 1.25193,7.52809 1.25193,10.47385 -0.004,13.41964 -12.21018,35.99984 -26.91649,35.99984 z m 5.63368,-48.76483 c -5.00772,0 -15.64913,9.16462 -16.27509,12.43768 -0.93896,2.61847 -1.25192,6.54617 -1.25192,8.83731 0,3.6004 0.93894,9.16464 7.51158,9.16464 10.01543,0 15.95823,-18.00195 15.95823,-23.89348 0,-3.6004 -1.24806,-6.54615 -5.9428,-6.54615 z"
         id="path3505" />
      <path
         inkscape:connector-curvature="0"
         d="m 1079.2868,331.53462 c -5.9468,30.7629 -8.1338,39.60425 -18.4622,59.2387 -8.1375,17.34733 -33.1723,52.03388 -58.2109,56.94753 -2.1909,0.65059 -12.83226,2.29117 -15.02315,0.98194 -18.77894,-2.61846 -25.66456,-10.47386 -36.92806,-30.1083 0.93894,-0.98597 2.81684,-0.33135 3.75578,0 8.13756,7.52404 20.03089,18.97983 25.66457,18.97983 1.56492,0 6.25965,-4.25501 8.7635,-5.89154 19.09196,-11.12848 36.30606,-38.94964 41.93966,-57.92948 2.1909,-4.9096 4.3818,-11.45578 5.9466,-17.99788 3.4429,-18.00194 7.8247,-52.04196 16.9011,-78.22255 v -0.32731 c 0,0.32731 -0.313,0 -0.6259,-0.97789 -9.0765,15.38348 -20.9699,38.9456 -30.9853,57.27486 -2.5039,3.60036 -6.2596,10.14249 -10.3284,13.08827 -0.3129,0.98192 -2.8169,2.61441 -5.3207,2.61441 -2.5039,0 -20.03091,-18.65251 -20.65301,-22.58021 -0.93894,-3.60038 -0.93894,-9.81922 -0.93894,-12.4377 0,-8.17865 3.44279,-22.25693 5.63367,-27.48982 2.19089,-9.16865 7.82457,-24.22079 12.83228,-33.71271 5.6337,-10.14654 35.3632,-62.18446 42.5618,-62.18446 2.8168,0 18.1491,4.90962 25.9737,8.50597 3.4428,2.29114 7.8245,10.14654 6.8856,15.38346 3.7558,0.98192 8.7635,1.30922 12.5193,3.92769 -4.3895,37.96773 -2.8246,66.77083 -11.901,112.91719 z m -16.2713,-116.18623 c -5.0078,0 -47.8825,76.58198 -50.0733,82.47755 -2.5039,6.86944 -5.9467,21.92562 -5.9467,24.54406 v 6.21886 c 10.9544,-16.03809 22.5348,-32.07619 31.6073,-48.76484 2.504,-4.25501 28.4815,-53.34715 28.4815,-59.89332 0,-2.29114 -1.878,-4.58231 -4.0688,-4.58231 z"
         id="path3507" />
      <path
         inkscape:connector-curvature="0"
         d="m 1197.5979,261.82208 c -0.9389,8.1827 -2.8167,19.31118 -5.0076,29.45367 -1.565,10.15059 -3.4468,22.25694 -3.4468,23.56617 0,2.28712 1.252,14.40156 2.8169,21.27502 h -0.3129 c -0.3131,0 -0.626,0.3273 -1.252,0.98194 1.8779,2.28709 4.3857,4.255 7.8246,6.21884 -2.1909,0 -5.3207,2.61442 -7.5116,2.61442 -5.9428,0 -24.0958,-14.07021 -27.2256,-26.18058 -3.4467,-10.80118 -3.4467,-20.94772 -3.4467,-24.87138 0.313,-4.255 0.939,-7.85538 0.6259,-13.41962 -4.0687,4.255 -6.8855,11.12846 -11.5803,15.38346 -4.0688,5.24097 -8.4506,11.7831 -12.5154,21.93368 -0.939,0.97787 -0.626,5.56422 -1.8741,7.85135 -3.7596,6.87348 -6.5726,13.41558 -11.5842,17.34732 -2.187,2.28712 -7.5077,4.255 -10.0154,4.255 h -4.6909 c -1.5649,0 -3.4428,-3.60039 -5.6337,-4.90961 -11.2674,-8.50596 -11.2674,-16.69271 -11.2674,-23.23886 0,-7.52404 2.8169,-21.92965 5.3207,-26.18061 3.4428,-9.49192 9.0766,-21.60232 14.3973,-31.09021 8.1375,-15.05615 25.6645,-46.47369 45.3786,-67.09407 0.9389,-0.98194 3.1298,-0.32732 5.6336,-0.32732 8.7635,0 18.1492,3.60038 25.9775,6.21886 v 3.60038 c -3.7596,6.21885 -8.7634,8.51002 -7.8245,12.43771 4.6947,-0.98194 11.2674,0 17.5231,0.98192 -0.935,4.90962 0.9428,15.37942 0.9428,17.67462 0,1.95578 -0.3129,18.64443 -1.2519,25.5179 z m -30.9814,-35.0179 c -0.9389,-1.30923 0,-1.96386 -0.9389,-1.96386 -7.5077,8.83731 -20.6568,28.14445 -23.1569,38.94562 -0.9389,2.2871 -3.1298,6.21884 -4.0725,9.81923 0.3168,-0.65461 0.6259,-0.98192 0.6259,-0.98192 l 0.3168,0.32731 c -4.6947,10.80115 -7.1985,16.03808 -12.8323,34.69464 25.3516,-35.34928 40.3709,-64.47562 48.1994,-85.75064 -2.8208,0.98192 -4.6987,2.61845 -8.1415,4.90962 z"
         id="path3509" />
      <path
         inkscape:connector-curvature="0"
         d="m 1354.4022,234.00091 c -2.5039,-1.3052 -6.2597,-5.89155 -9.7063,-6.86943 -5.9467,-2.29116 -14.7102,-4.255 -16.8972,-4.255 -8.4544,0 -15.6492,7.20482 -15.6492,12.76501 0,1.96383 8.1376,24.5481 12.2064,35.02194 4.0688,12.10636 6.8817,22.58021 8.4505,33.38138 0,2.29114 6.5688,13.41962 6.5688,18.32924 0,2.61443 0,10.14654 -2.5,14.39749 -2.1909,3.9277 -7.1948,7.52405 -12.2064,10.14656 -3.7558,2.61846 -11.2674,3.6004 -13.4543,3.6004 h -5.9467 c -20.34,0 -25.6607,-20.6204 -32.2334,-35.99985 -1.5649,-3.9277 -6.2595,-9.81923 -6.2595,-12.11039 0,-4.90962 5.3207,-11.12846 11.8894,-17.67059 5.9466,2.61848 2.1909,7.52809 2.1909,11.45175 0,2.94577 -0.6222,5.56422 -0.3131,9.16865 7.8246,9.16463 20.6569,13.41963 30.3555,13.41963 5.0077,0 5.0077,0.65057 10.9545,-3.60443 0,-1.63654 0,-2.61441 -0.3131,-3.60038 -6.2597,-9.16866 -36.615,-71.67236 -36.615,-93.60603 0,-16.03809 12.2024,-28.79906 28.1645,-28.79906 15.9621,0 42.8748,17.67462 42.8748,39.60022 0,2.28712 -0.626,4.255 -1.5611,5.23289 z"
         id="path3511" />
      <path
         inkscape:connector-curvature="0"
         d="m 1456.7398,219.60339 c -9.0766,4.90962 -24.0959,12.1104 -30.3555,11.12444 -2.187,0 -12.2024,1.96384 -14.3972,5.89154 -1.5649,2.28711 -4.6948,17.34732 -6.2596,25.19867 -2.5039,12.76501 -9.3895,30.43963 -9.3895,45.82312 0,12.10635 1.8778,20.28905 15.9621,20.28905 14.7102,0 35.0502,-17.34732 46.9396,-27.82119 -1.248,2.61848 -1.5611,9.81924 -4.3779,13.74693 -2.1908,3.92366 -6.2635,8.17867 -10.0155,11.12444 0,0.98191 1.2482,1.63653 1.2482,2.61442 -2.1909,3.93173 -3.1298,8.51002 -3.4429,12.43769 -2.1909,0.98194 -2.8168,2.94578 -4.0726,3.93174 -3.1299,3.27309 -13.7635,6.54213 -19.0841,6.54213 -5.9468,0 -13.4583,-2.94578 -20.0309,-7.19674 -1.565,-1.63653 -4.3857,-5.24096 -7.8247,-7.52809 -0.9389,-1.30922 -2.5038,0 -4.6947,-0.97787 -18.466,-19.9658 -20.0308,-40.25887 -20.0308,-60.54793 0,-1.30923 -0.313,-2.61847 -0.313,-5.23692 -1.252,-2.29117 3.4466,-33.38542 3.7557,-35.67656 0,-1.63251 -0.6259,-3.26904 -2.187,-4.90559 -1.2519,-0.32731 -1.8779,-2.61846 -2.1908,-6.54615 0,-2.29117 -3.7558,-4.255 -6.2597,-5.23692 -0.9351,-2.61848 -1.561,-3.6004 -1.561,-6.21886 0,-5.23693 5.6298,-4.58232 7.8207,-4.58232 2.4999,0 3.4466,0.32731 5.6336,0.32731 2.5039,0 3.1337,0.65461 4.0688,-2.29115 10.0155,-30.11233 20.0309,-44.83716 37.5541,-67.42139 15.3361,19.63848 12.8323,44.83713 9.3933,67.42139 7.5116,0.98192 18.4621,0.98192 27.5424,1.96384 9.0727,0.98192 15.6453,2.29116 23.153,5.23692 -6.8817,5.24097 -12.8284,6.22291 -16.5841,8.51405 z"
         id="path3513" />
      <path
         inkscape:connector-curvature="0"
         d="m 1553.4513,261.82208 c -0.9389,8.1827 -2.8169,19.31118 -5.0077,29.45367 -1.5649,10.15059 -3.4428,22.25694 -3.4428,23.56617 0,2.28712 1.248,14.40156 2.8168,21.27502 h -0.313 c -0.3129,0 -0.6259,0.3273 -1.2519,0.98194 1.8779,2.28709 4.3817,4.255 7.8207,6.21884 -2.1871,0 -5.3207,2.61442 -7.5078,2.61442 -5.9466,0 -24.0957,-14.07021 -27.2294,-26.18058 -3.4428,-10.80118 -3.4428,-20.94772 -3.4428,-24.87138 0.313,-4.255 0.9389,-7.85538 0.626,-13.41962 -4.0688,4.255 -6.8817,11.12846 -11.5765,15.38346 -4.0727,5.24097 -8.4544,11.7831 -12.5194,21.93368 -0.9389,0.97787 -0.6259,5.56422 -1.8779,7.85135 -3.7557,6.87348 -6.5726,13.41558 -11.5764,17.34732 -2.1909,2.28712 -7.5115,4.255 -10.0155,4.255 h -4.6947 c -1.5649,0 -3.4467,-3.60039 -5.6375,-4.90961 -11.2635,-8.50596 -11.2635,-16.69271 -11.2635,-23.23886 0,-7.52404 2.8168,-21.92965 5.3207,-26.18061 3.4428,-9.49192 9.0764,-21.60232 14.3971,-31.09021 8.1337,-15.05615 25.6647,-46.47369 45.3786,-67.09407 0.939,-0.98194 3.1337,-0.32732 5.6338,-0.32732 8.7635,0 18.1491,3.60038 25.9736,6.21886 v 3.60038 c -3.7519,6.21885 -8.7635,8.51002 -7.8206,12.43771 4.6947,-0.98194 11.2673,0 17.5269,0.98192 -0.9389,4.90962 0.9351,15.37942 0.9351,17.67462 0,1.95578 -0.3129,18.64443 -1.2519,25.5179 z m -30.9814,-35.0179 c -0.9389,-1.30923 0,-1.96386 -0.9389,-1.96386 -7.5116,8.83731 -20.6569,28.14445 -23.1569,38.94562 -0.9389,2.2871 -3.1337,6.21884 -4.0688,9.81923 0.3091,-0.65461 0.626,-0.98192 0.626,-0.98192 l 0.3091,0.32731 c -4.6948,10.80115 -7.1947,16.03808 -12.8284,34.69464 25.3516,-35.34928 40.3709,-64.47562 48.1954,-85.75064 -2.8168,0.98192 -4.6985,2.61845 -8.1375,4.90962 z"
         id="path3515" />
      <path
         inkscape:connector-curvature="0"
         d="m 1657.9797,219.60339 c -9.0726,4.90962 -24.0957,12.1104 -30.3515,11.12444 -2.1909,0 -12.2064,1.96384 -14.4011,5.89154 -1.561,2.28711 -4.6947,17.34732 -6.2558,25.19867 -2.5039,12.76501 -9.3895,30.43963 -9.3895,45.82312 0,12.10635 1.874,20.28905 15.9621,20.28905 14.7102,0 35.0463,-17.34732 46.9397,-27.82119 -1.2519,2.61848 -1.5611,9.81924 -4.3817,13.74693 -2.1909,3.92366 -6.2597,8.17867 -10.0155,11.12444 0,0.98191 1.248,1.63653 1.248,2.61442 -2.187,3.93173 -3.1298,8.51002 -3.4428,12.43769 -2.187,0.98194 -2.8168,2.94578 -4.0688,3.93174 -3.1298,3.27309 -13.7673,6.54213 -19.088,6.54213 -5.9466,0 -13.4582,-2.94578 -20.0309,-7.19674 -1.5649,-1.63653 -4.3818,-5.24096 -7.8207,-7.52809 -0.9428,-1.30922 -2.5038,0 -4.6948,-0.97787 -18.4659,-19.9658 -20.0308,-40.25887 -20.0308,-60.54793 0,-1.30923 -0.3169,-2.61847 -0.3169,-5.23692 -1.248,-2.29117 3.4468,-33.38542 3.7597,-35.67656 0,-1.63251 -0.626,-3.26904 -2.1908,-4.90559 -1.2481,-0.32731 -1.8741,-2.61846 -2.1909,-6.54615 0,-2.29117 -3.752,-4.255 -6.2558,-5.23692 -0.939,-2.61848 -1.5649,-3.6004 -1.5649,-6.21886 0,-5.23693 5.6337,-4.58232 7.8207,-4.58232 2.5038,0 3.4466,0.32731 5.6375,0.32731 2.5,0 3.1298,0.65461 4.0688,-2.29115 10.0154,-30.11233 20.0309,-44.83716 37.554,-67.42139 15.3362,19.63848 12.8284,44.83713 9.3895,67.42139 7.5115,0.98192 18.466,0.98192 27.5424,1.96384 9.0766,0.98192 15.6492,2.29116 23.1569,5.23692 -6.8818,5.24097 -12.8284,6.22291 -16.5881,8.51405 z"
         id="path3517" />
      <path
         inkscape:connector-curvature="0"
         d="m 1703.9882,349.85984 c -4.0688,0.65461 -21.279,-6.21886 -21.5919,-6.54212 -2.191,0 -0.626,-0.65462 -3.1337,-0.32731 -9.7026,0 -21.5959,-26.51194 -21.5959,-29.12637 -0.3091,-3.93174 -1.248,-9.82327 -1.248,-12.11444 0,-2.94576 1.248,-15.05212 2.1908,-21.92558 2.5,-10.14655 7.5078,-21.27503 12.8285,-34.04003 0,-0.97789 25.0347,-48.11022 33.4853,-49.09214 2.5038,0 6.2596,1.30922 8.7634,2.61846 5.0116,0.98192 10.9544,7.85538 16.2751,12.765 1.565,1.30924 5.3207,2.29116 7.5116,5.89155 2.187,2.94578 4.6948,8.83732 4.6948,11.12442 0,2.61847 -4.0688,16.69271 -7.5116,21.93367 -17.8362,27.48983 -23.7829,40.2508 -44.1267,55.63429 -2.187,1.64057 -2.5,10.80519 -2.5,13.09232 l 0.313,12.76498 c 25.9737,-5.23692 47.2526,-24.87134 69.1614,-39.27695 -3.1299,10.80118 -39.1151,56.29697 -53.5161,56.62025 z m -10.9505,-68.72658 c 12.5153,-18.32926 25.0346,-39.60427 25.9736,-59.56601 -12.8284,19.96174 -20.653,39.93157 -25.9736,59.56601 z"
         id="path3519" />
      <path
         inkscape:connector-curvature="0"
         d="m 1868.6132,335.13097 c -2.8169,2.61848 -6.2598,8.50597 -9.0767,11.12848 -2.1908,1.63653 -7.1986,0.98192 -9.7024,0.98192 -13.4543,0 -23.1607,-7.8554 -29.7295,-17.99789 -6.5726,-10.15061 -10.0154,-20.2931 -8.4505,-38.94965 0,-17.67462 7.8206,-37.96772 6.2557,-52.03791 -6.2557,9.16461 -12.8283,21.59828 -15.6491,30.43559 l -0.622,0.98192 c -0.313,0.32731 0,0.65057 0.9351,0.65057 -2.187,5.56423 -1.8741,3.60443 -0.9351,3.60443 -2.8169,6.21884 -6.5726,14.07019 -11.8933,28.47176 -5.0078,14.40154 -9.0766,23.23886 -12.5193,31.41751 -0.9351,3.93175 3.4466,8.1827 0.3129,12.43771 -2.187,-0.97788 -4.3817,2.61845 -5.3207,4.90961 -2.187,0.32731 -3.1298,-3.92769 -5.6336,-3.92769 -2.1871,0 -0.6222,0.98192 -3.1299,0.98192 -1.874,0 -10.0155,-7.52807 -11.8894,-12.1104 -3.1337,-5.89153 -2.504,-21.60233 -2.504,-23.89347 0,-14.39348 4.3818,-37.63233 8.4506,-54.97965 4.0726,-17.34328 9.7024,-35.34521 14.7102,-53.34715 0.313,-0.98194 0.313,-3.27308 -0.6221,-4.90961 4.0687,-0.98195 9.7025,-3.27309 12.2024,-3.27309 7.1986,0 15.0232,2.29114 15.0232,10.14654 0,2.61848 -2.8168,27.82119 -6.2597,43.52387 7.1986,-13.08827 15.6492,-30.43559 25.9776,-43.19656 1.565,-2.61845 8.7636,-2.61845 10.9544,-2.61845 2.1909,0 11.2673,2.29114 16.2751,3.60037 3.4427,5.23694 6.5688,20.94771 6.5688,30.76696 0,1.96384 -1.8742,22.25694 -3.4429,33.38539 -1.2519,4.90962 -4.0687,10.47387 -5.3206,17.34329 -0.9389,4.25904 -3.13,17.67462 -4.0688,23.23887 -0.3131,5.23288 -1.2519,10.14654 -1.2519,11.78306 0,5.23291 1.2519,11.77905 5.9465,11.77905 8.1337,0 31.2983,-13.08827 43.8137,-20.28905 -5.3245,3.9277 -13.4582,13.08829 -19.4047,19.96175 z"
         id="path3521" />
      <path
         inkscape:connector-curvature="0"
         d="m 1915.5605,333.49848 c -3.7559,3.6004 -8.7635,8.50597 -15.0232,12.76097 -0.9389,-0.9779 -0.9389,-2.28712 -1.8781,-3.27308 l -0.9388,-0.65462 c 0.9388,-1.63655 0.9388,-2.94578 -0.309,-6.54616 -0.939,0 -1.878,-5.56424 -0.3131,-6.54211 v -2.94578 c -0.9388,-0.98192 -1.2519,-0.65462 -2.1907,-0.98192 -0.3131,-2.28712 -1.565,-8.83731 -1.565,-11.12848 0,-2.61441 1.565,-1.96384 0.6258,-2.94575 0,-1.30925 2.1911,-4.25501 3.4467,-5.23695 2.1871,-1.30922 4.6948,-2.6144 6.8818,-2.6144 2.5039,0 9.3894,6.21479 13.1454,8.50596 -0.9392,4.255 -1.2519,7.85135 2.187,10.14654 -2.191,3.9277 -3.1299,8.83731 -4.0688,11.45578 z m 32.2332,-160.04147 c -2.8169,15.38349 -8.4505,33.70868 -15.0193,50.72869 -4.6985,10.46983 -10.9543,19.63445 -15.6491,30.43964 -2.1908,5.56425 -3.4467,12.76097 -4.6946,19.30714 -1.2519,0.98192 -2.8169,1.95979 -3.7597,3.27308 h -3.4429 c -0.9389,-13.08827 -3.1296,-33.70868 -3.1296,-36.32714 0,-1.96384 0.6258,-19.63443 1.5609,-28.14444 0.9388,-7.8554 2.8168,-21.92561 4.3817,-31.41753 2.1909,-9.49193 5.3207,-23.56617 8.7673,-30.4356 2.5001,-5.56422 18.7751,-30.7629 23.7829,-30.7629 h 5.9467 c 0,2.61846 1.561,4.58232 2.4999,8.1827 2.8169,8.17867 3.4468,9.16462 3.4468,17.34328 0,8.82923 -3.4391,20.93962 -4.691,27.81308 z"
         id="path3523" />
    </g>
    <g
       transform="matrix(8.7934765,0,0,12.795104,-1600.1477,-3552.2204)"
       id="g3525">
      <g
         id="g3527">
        <g
           id="g3529">
          <path
             style="fill:#8ed8f8"
             inkscape:connector-curvature="0"
             d="m 204.978,302.535 c 0.485,-0.646 0.626,-1.541 1.357,-1.473 2.076,0.556 1.759,3.695 3.828,4.297 l 0.905,-0.951 c 0.917,1.394 1.773,2.974 2.718,4.494 2.554,1.763 5.171,3.477 7.863,5.121 0.24,-0.42 0.489,-0.784 0.84,-0.72 1.229,0.558 2.328,2.067 3.678,3.38 l 0.78,0.36 c 0.346,-0.079 0.683,-0.393 0.891,-0.585 0.623,0.582 1.122,1.168 1.566,1.73 8.727,4.044 17.888,8.134 27.637,12.917 2.445,0.587 4.894,1.183 6.844,2.21 2.677,1.754 5.091,5.104 7.279,7.296 2.751,-3.729 9.846,-0.346 11.858,-4.817 1.454,1.451 3.641,3.618 4.628,2.748 2.952,-2.618 7.162,-4.87 12.628,-3.236 1.893,0.921 3.116,4.083 4.111,3.859 1.602,-0.307 -0.124,-3.668 1.484,-3.972 -2.445,-2.491 -5.184,-5.121 -7.987,-7.678 -2.812,-2.568 -5.725,-5.104 -8.685,-7.631 -5.923,-5.056 -12.036,-10.069 -18.077,-15.501 -2.747,-1.079 -11.201,-7.686 -20.138,-14.751 l -13.058,-10.337 c -3.993,-3.161 -7.399,-5.84 -9.32,-7.515 l -0.782,-0.495 c -4.319,-3.455 -10.338,-7.046 -15.609,-8.049 -2.544,-0.22 -5.261,-0.198 -7.976,-0.107 0.67,1.172 1.204,2.309 1.605,3.369 -1.988,-1.179 -4.144,-2.296 -5.34,-1.905 -2.776,-0.131 -3.691,0.716 -3.814,1.959 -0.127,1.252 0.44,2.945 0.608,4.736 0.567,1.762 -1.768,3.014 -0.676,5.055 -1.164,-0.609 -1.751,-0.904 -2.938,-1.449 -0.305,0.581 0.674,0.782 1.532,1.093 0.859,0.31 1.58,0.699 0.718,1.477 -0.921,-0.982 -2.506,-0.789 -3.629,-1.271 -0.103,0.904 0.812,1.429 1.659,1.975 0.847,0.543 1.617,1.086 1.157,1.831 -0.385,0.042 -0.914,-0.861 -1.51,-1.517 -0.594,-0.657 -1.245,-1.07 -1.732,-0.092 -0.196,0.388 0.865,0.873 1.402,1.146 -1.83,-0.424 -3.297,-0.173 -3.99,0.555 -0.697,0.733 -0.726,1.857 0.125,3.411 -0.844,-0.381 -1.779,-1.61 -2.545,-1.448 l -10e-4,0.036 c 0.326,0.132 0.897,0.74 1.278,0.888 -0.468,-0.178 -0.903,-0.326 -1.28,-0.441 l 0.011,0.928 c 0.231,0.33 0.471,0.606 0.811,0.741 -0.284,-0.11 -0.556,-0.209 -0.798,-0.289 0.029,0.733 0.07,1.45 0.139,2.136 0.543,1.609 0.806,3.923 1.373,4.216 2.243,1.5 4.979,3.491 7.781,5.605 l 8.791,6.661 z"
             id="path3531" />
        </g>
      </g>
    </g>
    <g
       transform="matrix(8.7934765,0,0,12.795104,-1600.1477,-3552.2204)"
       id="g3533">
      <g
         id="g3535">
        <g
           id="g3537">
          <path
             style="fill:#fff579"
             inkscape:connector-curvature="0"
             d="m 237.333,336.841 c -0.566,-0.577 -1.408,-0.873 -1.26,-1.555 0.768,-1.867 3.741,-0.999 4.538,-2.852 l -0.814,-1.028 c 1.431,-0.618 3.029,-1.145 4.578,-1.767 1.944,-2.103 3.838,-4.273 5.669,-6.528 -0.375,-0.303 -0.697,-0.604 -0.602,-0.925 0.652,-1.063 2.195,-1.835 3.574,-2.878 l 0.419,-0.674 c -0.042,-0.342 -0.306,-0.718 -0.469,-0.949 0.615,-0.485 1.219,-0.853 1.796,-1.173 4.694,-7.541 9.461,-15.493 14.999,-23.851 0.81,-2.211 1.633,-4.424 2.813,-6.08 1.947,-2.209 5.375,-3.853 7.688,-5.49 -3.213,-3.346 0.831,-9.41 -3.136,-12.219 1.555,-1.097 3.894,-2.735 3.205,-3.854 -2.067,-3.35 -3.688,-7.812 -1.163,-12.772 1.217,-1.648 4.603,-2.203 4.654,-3.251 0.083,-1.656 -3.695,-0.611 -3.612,-2.269 -12.379,7.858 -22.668,18.052 -34.3,27.618 -1.33,2.427 -8.516,9.317 -16.15,16.563 -7.651,7.203 -15.701,14.936 -19.276,17.946 l -0.552,0.639 c -3.737,3.405 -7.775,8.272 -9.328,12.814 -0.5,2.254 -0.805,4.699 -1.081,7.113 1.191,-0.29 2.334,-0.492 3.39,-0.603 -1.374,1.521 -2.727,3.117 -2.54,4.261 -1.046,4.755 2.366,3.992 5.808,4.624 1.777,-0.073 2.55,2.393 4.707,1.875 -0.801,0.938 -1.196,1.411 -1.976,2.37 0.952,0.876 1.731,-3.444 2.925,-1.463 -1.114,0.63 -1.254,2.161 -1.999,3.099 1.66,0.679 3.004,-2.957 4.289,-1.744 -0.07,0.729 -3.917,1.262 -2.276,2.725 0.328,0.288 1.062,-0.621 1.443,-1.071 -0.815,1.653 -1.017,3.174 -0.555,4.095 0.466,0.927 1.559,1.265 3.397,0.701 -0.66,0.819 -2.245,1.541 -2.55,2.61 l 0.034,0.011 c 0.34,-0.414 1.221,-0.951 1.526,-1.352 -0.373,0.493 -0.742,0.986 -1.088,1.475 0.31,0.081 0.622,0.149 0.935,0.216 0.461,-0.233 0.886,-0.492 1.172,-0.866 l -0.713,0.957 c 0.757,0.13 1.512,0.221 2.249,0.268 1.935,-0.388 4.382,-0.265 4.874,-0.844 4.513,-4.361 9.719,-9.008 14.758,-13.922 z"
             id="path3539" />
        </g>
      </g>
    </g>
  </g>
</svg>
